<svg width="27" height="28" viewBox="0 0 27 28" fill="none" xmlns="http://www.w3.org/2000/svg">
<path fill-rule="evenodd" clip-rule="evenodd" d="M25.3134 9.54219C25.8424 9.3835 26.3999 9.68368 26.5586 10.2127C26.8942 11.3315 27.0008 12.4336 27.0008 13.5C27.0008 20.9523 20.9531 27 13.5008 27C9.84482 27 6.48765 25.6011 4.09367 23.2071C3.70315 22.8166 3.70315 22.1834 4.09367 21.7929C4.4842 21.4024 5.11736 21.4024 5.50789 21.7929C7.51391 23.7989 10.3567 25 13.5008 25C19.8485 25 25.0008 19.8477 25.0008 13.5C25.0008 12.5664 24.9073 11.6686 24.643 10.7874C24.4843 10.2584 24.7844 9.70089 25.3134 9.54219Z" fill="black"/>
<path fill-rule="evenodd" clip-rule="evenodd" d="M0 13.5C0 6.04772 6.04772 0 13.5 0C17.9359 0 21.82 2.16511 24.2936 5.39157C24.6296 5.82986 24.5467 6.45758 24.1084 6.79361C23.6701 7.12963 23.0424 7.04673 22.7064 6.60843C20.58 3.83488 17.2641 2 13.5 2C7.15228 2 2 7.15228 2 13.5C2 15.259 2.36995 16.9038 3.09443 18.3528C3.34142 18.8468 3.14119 19.4474 2.64721 19.6944C2.15324 19.9414 1.55256 19.7412 1.30557 19.2472C0.430046 17.4962 0 15.541 0 13.5Z" fill="black"/>
<path fill-rule="evenodd" clip-rule="evenodd" d="M23.6481 1.91167C24.1939 1.82769 24.7045 2.20212 24.7885 2.74799L25.3885 6.64799C25.4369 6.96283 25.3325 7.28191 25.1072 7.50715C24.882 7.73239 24.5629 7.83685 24.2481 7.78841L20.3481 7.18841C19.8022 7.10444 19.4278 6.59385 19.5118 6.04799C19.5957 5.50212 20.1063 5.12769 20.6522 5.21167L23.2044 5.60432L22.8118 3.0521C22.7278 2.50624 23.1022 1.99565 23.6481 1.91167Z" fill="black"/>
<path fill-rule="evenodd" clip-rule="evenodd" d="M9.19602 21.8303C9.23445 22.3813 8.81898 22.8591 8.26804 22.8975L5.30554 23.1042L6.33477 25.8488C6.52869 26.3659 6.26669 26.9424 5.74956 27.1363C5.23244 27.3302 4.65603 27.0682 4.46211 26.5511L2.96211 22.5511C2.85126 22.2555 2.88651 21.9249 3.05718 21.6593C3.22785 21.3937 3.51391 21.2243 3.82884 21.2024L8.12884 20.9024C8.67979 20.8639 9.15758 21.2794 9.19602 21.8303Z" fill="black"/>
</svg>
