<svg width="30" height="27" viewBox="0 0 30 27" fill="none" xmlns="http://www.w3.org/2000/svg">
<path fill-rule="evenodd" clip-rule="evenodd" d="M21.1992 21C22.3038 21 23.1992 21.8954 23.1992 23C23.1992 24.1046 22.3038 25 21.1992 25C20.0946 25 19.1992 24.1046 19.1992 23C19.1992 21.8954 20.0946 21 21.1992 21ZM25.1992 23C25.1992 20.7909 23.4084 19 21.1992 19C18.9901 19 17.1992 20.7909 17.1992 23C17.1992 25.2091 18.9901 27 21.1992 27C23.4084 27 25.1992 25.2091 25.1992 23Z" fill="black"/>
<path fill-rule="evenodd" clip-rule="evenodd" d="M8.19922 21C9.30379 21 10.1992 21.8954 10.1992 23C10.1992 24.1046 9.30379 25 8.19922 25C7.09465 25 6.19922 24.1046 6.19922 23C6.19922 21.8954 7.09465 21 8.19922 21ZM12.1992 23C12.1992 20.7909 10.4084 19 8.19922 19C5.99008 19 4.19922 20.7909 4.19922 23C4.19922 25.2091 5.99008 27 8.19922 27C10.4084 27 12.1992 25.2091 12.1992 23Z" fill="black"/>
<path fill-rule="evenodd" clip-rule="evenodd" d="M13.3 2C13.818 2 14.4 2.52212 14.4 3.2V13C14.4 13.5523 14.8477 14 15.4 14H28V20.8C28 21.4779 27.418 22 26.9 22H24.3C23.7477 22 23.3 22.4477 23.3 23C23.3 23.5523 23.7477 24 24.3 24H26.9C28.582 24 30 22.5221 30 20.8V13C30 12.4477 29.5523 12 29 12H16.4V3.2C16.4 1.47788 14.982 0 13.3 0H3.1C1.41803 0 0 1.47788 0 3.2V20.9C0 22.6221 1.41803 24.1 3.1 24.1H5C5.55228 24.1 6 23.6523 6 23.1C6 22.5477 5.55228 22.1 5 22.1H3.1C2.58197 22.1 2 21.5779 2 20.9V3.2C2 2.52212 2.58197 2 3.1 2H13.3Z" fill="black"/>
<path fill-rule="evenodd" clip-rule="evenodd" d="M19.1992 23C19.1992 22.4477 18.7515 22 18.1992 22H11.1992C10.6469 22 10.1992 22.4477 10.1992 23C10.1992 23.5523 10.6469 24 11.1992 24H18.1992C18.7515 24 19.1992 23.5523 19.1992 23Z" fill="black"/>
<path fill-rule="evenodd" clip-rule="evenodd" d="M28.6016 11C28.6016 6.26529 25.4488 2 21.2016 2H15.6016C15.0493 2 14.6016 2.44772 14.6016 3C14.6016 3.55228 15.0493 4 15.6016 4H21.2016C23.9543 4 26.6016 6.93471 26.6016 11V13C26.6016 13.5523 27.0493 14 27.6016 14C28.1538 14 28.6016 13.5523 28.6016 13V11Z" fill="black"/>
</svg>
