<svg width="30" height="22" viewBox="0 0 30 22" fill="none" xmlns="http://www.w3.org/2000/svg">
<path fill-rule="evenodd" clip-rule="evenodd" d="M3 2C2.45228 2 2 2.45228 2 3V19C2 19.5477 2.45228 20 3 20H27C27.5477 20 28 19.5477 28 19V3C28 2.45228 27.5477 2 27 2H3ZM0 3C0 1.34772 1.34772 0 3 0H27C28.6523 0 30 1.34772 30 3V19C30 20.6523 28.6523 22 27 22H3C1.34772 22 0 20.6523 0 19V3Z" fill="black"/>
<path fill-rule="evenodd" clip-rule="evenodd" d="M0 6.5C0 5.94772 0.447715 5.5 1 5.5H29C29.5523 5.5 30 5.94772 30 6.5C30 7.05228 29.5523 7.5 29 7.5H1C0.447715 7.5 0 7.05228 0 6.5Z" fill="black"/>
<path fill-rule="evenodd" clip-rule="evenodd" d="M4.30078 12.2C4.30078 11.6477 4.7485 11.2 5.30078 11.2H12.3008C12.8531 11.2 13.3008 11.6477 13.3008 12.2C13.3008 12.7522 12.8531 13.2 12.3008 13.2H5.30078C4.7485 13.2 4.30078 12.7522 4.30078 12.2Z" fill="black"/>
</svg>
