<svg width="27" height="27" viewBox="0 0 27 27" fill="none" xmlns="http://www.w3.org/2000/svg">
<path fill-rule="evenodd" clip-rule="evenodd" d="M14.8544 2.91708C14.1358 1.69133 12.3035 1.69431 11.5904 2.92604C11.5834 2.93813 11.5762 2.95008 11.5687 2.96188C10.6629 4.38527 8.92197 5.23187 7.13091 4.68078L7.10877 4.67368C5.85092 4.2544 4.44942 5.45508 4.79977 7.00176C5.17831 8.64508 4.57451 10.5478 2.90444 11.4031C1.69136 12.1268 1.69856 13.9489 2.92604 14.6596C2.93813 14.6666 2.95008 14.6738 2.96188 14.6813C4.38053 15.5841 5.22623 17.3164 4.68624 19.1012C4.28785 20.5963 5.55936 21.8427 6.96188 21.4602C6.97457 21.4568 6.98733 21.4536 7.00014 21.4506C8.64384 21.0713 10.5475 21.6749 11.4031 23.3456C12.1268 24.5586 13.9489 24.5514 14.6596 23.324C14.6666 23.3119 14.6738 23.2999 14.6813 23.2881C15.5841 21.8695 17.3164 21.0238 19.1012 21.5638C20.5963 21.9622 21.8427 20.6906 21.4602 19.2881C21.4568 19.2754 21.4536 19.2627 21.4506 19.2499C21.0713 17.6062 21.6749 15.7025 23.3456 14.8469C24.5586 14.1232 24.5514 12.3011 23.324 11.5904C23.3119 11.5834 23.2999 11.5762 23.2881 11.5687C21.8695 10.6659 21.0238 8.93357 21.5638 7.14883C21.9622 5.65374 20.6907 4.40726 19.2881 4.78976C19.2754 4.79322 19.2627 4.79643 19.2499 4.79939C17.5507 5.1915 15.6886 4.43113 14.8544 2.91708ZM9.8718 1.90299C11.3653 -0.641302 15.1093 -0.634312 16.5904 1.92396C16.5947 1.93131 16.5988 1.9387 16.6029 1.94615C16.97 2.61926 17.8931 3.05217 18.7841 2.85425C21.7677 2.05743 24.2785 4.79616 23.4898 7.68812C23.4869 7.69849 23.4839 7.70881 23.4808 7.71909C23.2335 8.52285 23.5808 9.37614 24.347 9.8718C26.8913 11.3653 26.8843 15.1093 24.326 16.5904C24.3084 16.6006 24.2904 16.6103 24.2722 16.6194C23.5714 16.9699 23.1856 17.8442 23.3957 18.7838C24.1927 21.7676 21.4539 24.2785 18.5619 23.4898C18.5515 23.4869 18.5412 23.4839 18.5309 23.4808C17.7271 23.2335 16.8739 23.5808 16.3782 24.347C14.8847 26.8913 11.1407 26.8843 9.65957 24.326C9.64936 24.3084 9.63969 24.2904 9.63057 24.2722C9.28014 23.5714 8.40579 23.1856 7.4662 23.3957C4.48242 24.1927 1.9715 21.4539 2.76024 18.5619C2.76306 18.5515 2.76606 18.5412 2.76922 18.5309C3.01653 17.7272 2.66923 16.8739 1.90299 16.3782C-0.641302 14.8847 -0.634312 11.1407 1.92396 9.65957C1.9416 9.64936 1.95955 9.63969 1.97779 9.63057C2.68271 9.27811 3.06887 8.39564 2.85061 7.44986L2.84986 7.44662L2.84987 7.44662C2.20252 4.59828 4.79188 1.80398 7.72824 2.77201C8.52932 3.01389 9.37802 2.66632 9.8718 1.90299Z" fill="black"/>
<path fill-rule="evenodd" clip-rule="evenodd" d="M17.8486 8.33547C18.2293 8.73551 18.2137 9.36848 17.8137 9.74925L9.51366 17.6492C9.11361 18.03 8.48064 18.0144 8.09988 17.6143C7.71911 17.2143 7.73474 16.5813 8.13478 16.2006L16.4348 8.30056C16.8348 7.91979 17.4678 7.93542 17.8486 8.33547Z" fill="black"/>
<path d="M16.0258 17.125C16.6333 17.125 17.1258 16.6326 17.1258 16.025C17.1258 15.4175 16.6333 14.925 16.0258 14.925C15.4183 14.925 14.9258 15.4175 14.9258 16.025C14.9258 16.6326 15.4183 17.125 16.0258 17.125Z" fill="black"/>
<path d="M10.0258 11.125C10.6333 11.125 11.1258 10.6326 11.1258 10.025C11.1258 9.41754 10.6333 8.92505 10.0258 8.92505C9.41827 8.92505 8.92578 9.41754 8.92578 10.025C8.92578 10.6326 9.41827 11.125 10.0258 11.125Z" fill="black"/>
</svg>
