<svg width="31" height="32" viewBox="0 0 31 32" fill="none" xmlns="http://www.w3.org/2000/svg">
<path d="M28.5056 0.888916H6.9481C6.05729 0.888916 5.34465 1.60003 5.34465 2.48892V18.3111L0.890625 31.1111L11.8475 25.5111H28.5056C29.3964 25.5111 30.109 24.8 30.109 23.9111V2.48892C30.109 1.60003 29.3964 0.888916 28.5056 0.888916Z" stroke="black" stroke-width="2" stroke-miterlimit="10" stroke-linecap="round" stroke-linejoin="round"/>
<path d="M14.9648 9.60015C14.9648 7.82237 16.3901 6.40015 18.1717 6.40015C19.9534 6.40015 21.3786 7.82237 21.3786 9.60015C21.3786 11.3779 19.9534 12.8001 18.1717 12.8001V16.1779" stroke="black" stroke-width="2" stroke-miterlimit="10" stroke-linecap="round" stroke-linejoin="round"/>
<path d="M18.1721 19.7336C18.664 19.7336 19.0629 19.3356 19.0629 18.8447C19.0629 18.3538 18.664 17.9558 18.1721 17.9558C17.6801 17.9558 17.2812 18.3538 17.2812 18.8447C17.2812 19.3356 17.6801 19.7336 18.1721 19.7336Z" fill="black"/>
</svg>
